<svg xmlns="http://www.w3.org/2000/svg" version="1.1" xmlns:xlink="http://www.w3.org/1999/xlink" viewBox="0 0 200 200">
  <defs>
    <linearGradient id="gradient" gradientTransform="rotate(45 0.5 0.5)">
      <stop offset="0%" stop-color="#3450d1"></stop>
      <stop offset="100%" stop-color="#3450d1"></stop>
    </linearGradient>
  </defs>
  <rect width="200" height="200" fill="url('#gradient')"></rect>
  <g fill="#ffffff" transform="matrix(11.883227561196737,0,0,11.883227561196737,25.077536616548016,169.75856797623828)" stroke="#ffffff" stroke-width="0">
    <path d="M9.34-7.81L11.69-7.80Q11.69-5.89 10.80-4.74Q9.90-3.58 8.43-3.58L8.43-3.58Q7.70-3.58 7.10-3.87Q6.51-4.15 5.77-4.89Q5.02-5.63 4.38-5.63L4.38-5.63Q3.90-5.63 3.57-5.15Q3.24-4.67 3.24-3.96L3.24-3.96L0.92-3.99Q0.92-5.91 1.79-7.04Q2.67-8.16 4.16-8.16L4.16-8.16Q4.90-8.16 5.52-7.88Q6.13-7.59 6.86-6.86Q7.59-6.13 8.20-6.13L8.20-6.13Q8.70-6.13 9.02-6.62Q9.34-7.10 9.34-7.81L9.34-7.81Z"></path>
  </g>
</svg>
